<svg width="508" height="106" viewBox="0 0 508 106" fill="none" xmlns="http://www.w3.org/2000/svg">
<path d="M48.3335 7.93341C48.3335 18.2001 49.4002 21.6667 52.4668 21.6667C54.6002 21.6667 55.0002 20.6001 55.0002 15.1334C55.0002 5.00008 53.6668 0.333414 50.8668 0.333414C48.7335 0.333414 48.3335 1.40008 48.3335 7.93341Z" fill="black"/>
<path d="M66.8665 6.6C63.9332 14.2 61.6665 20.7333 61.6665 21.8C61.6665 22.4667 62.9998 23 64.7332 23C67.2665 23 68.1998 21.6667 70.7332 14.0667C72.1998 9.26667 73.2665 4.73333 72.8665 4.06667C71.3998 1.8 68.1998 3.13333 66.8665 6.6Z" fill="black"/>
<path d="M30.7336 5.66676C28.7336 6.86676 28.7336 7.66676 31.9336 14.7334C33.8003 18.8668 35.9336 23.0001 36.6003 23.9334C38.2003 25.9334 41.667 24.7334 41.667 22.2001C41.667 20.4668 34.067 4.33343 33.267 4.33343C33.1336 4.33343 31.9336 5.00009 30.7336 5.66676Z" fill="black"/>
<path d="M79.3998 19.5333C76.1998 23.4 73.6665 27.2667 73.6665 28.2C73.6665 29.5333 74.1998 29.8 77.5332 30.2C78.1998 30.3333 81.3998 27 84.7332 22.8667C89.2665 17.2667 90.4665 15 89.2665 13.8C86.7332 11.2667 85.2665 12.2 79.3998 19.5333Z" fill="black"/>
<path d="M13.9335 18.0667C12.7335 19.4 14.0669 21.5333 19.6669 27C26.6002 33.9333 27.1335 34.0667 29.2669 31.9333C31.5335 29.6667 31.4002 29.2667 24.7335 23C17.4002 15.9333 16.2002 15.4 13.9335 18.0667Z" fill="black"/>
<path d="M42.3334 29.5333C27.1334 36.3333 22.6001 55.2666 32.7334 68.6C39.1334 76.8666 44.4667 79.2666 55.2667 78.7333C62.8667 78.3333 65.0001 77.6666 69.2667 74.2C77.0001 68.0666 80.7334 59.9333 79.8001 51.1333C78.0667 32.6 59.2667 21.8 42.3334 29.5333ZM64.6001 36.0666C70.3334 39.4 74.0667 47.5333 73.4001 54.8666C72.6001 62.8666 69.2667 67.5333 61.9334 71.1333C52.4667 75.8 43.4001 73 36.7334 63C27.5334 49.6666 40.0667 30.7333 56.3334 33.1333C58.8667 33.5333 62.6001 34.8666 64.6001 36.0666Z" fill="black"/>
<path d="M89.3998 32.4668C81.2665 36.6001 80.8665 37.1335 82.9998 40.3335C84.0665 42.0668 85.5332 41.6668 92.9998 37.6668C98.4665 34.7335 101.533 32.3335 101.4 31.0001C100.733 27.8001 97.5332 28.2001 89.3998 32.4668Z" fill="black"/>
<path d="M4.3335 36.0667C4.3335 38.0667 6.3335 39.5334 12.7335 42.0667C20.7335 45.2667 24.3335 45.1334 24.3335 41.4C24.3335 40.0667 13.5335 35.1334 8.06683 34.0667C5.00016 33.4 4.3335 33.8 4.3335 36.0667Z" fill="black"/>
<path d="M95.6668 48.3334C87.4002 48.8667 86.3335 49.2667 86.3335 51.6667C86.3335 53.4001 87.1335 54.3334 88.7335 54.2001C89.9335 54.2001 94.6002 54.0667 99.0002 53.9334C105.933 53.6667 107 53.2667 107 51.1334C107 47.6667 106.6 47.5334 95.6668 48.3334Z" fill="black"/>
<path d="M0.733097 54.4667C-0.600236 58.2 2.19976 59.1333 12.0664 58.2C20.1998 57.4 21.6664 56.8667 21.6664 54.8667C21.6664 52.6 20.4664 52.3333 11.6664 52.3333C3.79976 52.3333 1.39976 52.7333 0.733097 54.4667Z" fill="black"/>
<path d="M13.4001 68.4667C6.20013 72.0667 3.93346 75.1334 7.00013 77.0001C7.6668 77.4001 12.2001 75.9334 17.0001 73.8001C23.6668 70.7334 25.8001 69.1334 25.4001 67.4001C24.7335 63.8001 21.8001 64.0667 13.4001 68.4667Z" fill="black"/>
<path d="M80.3333 69.5333C79.1333 71.8 79.5333 72.6 82.6 74.4666C84.7333 75.8 88.7333 78.2 91.5333 80.0666C96.6 83.2666 96.8666 83.2666 98.6 80.8666C100.733 78.0666 99.5333 76.8666 88.4666 70.6C81.9333 67 81.8 67 80.3333 69.5333Z" fill="black"/>
<path d="M22.6002 82.7334C16.8669 89.5334 16.4669 90.3334 18.3335 92.2001C20.3335 94.2001 21.1335 93.6667 27.0002 87.0001C34.0669 79.1334 34.8669 77.1334 31.5335 75.8001C28.8669 74.8667 30.0669 73.9334 22.6002 82.7334Z" fill="black"/>
<path d="M67.1336 81.5333C65.6669 82.4667 66.2003 84.3333 69.8003 91.1334C74.6003 99.9334 75.8003 101 78.8669 99.1334C80.3336 98.2 79.8003 96.3334 76.0669 89.5334C71.2669 80.7333 70.0669 79.6667 67.1336 81.5333Z" fill="black"/>
<path d="M39.9335 83.9333C39.5335 84.6 38.0668 88.6 36.4668 92.8667C33.6668 100.867 34.0668 102.867 38.3335 103C40.0668 103 45.9335 85.8 44.8668 84.0667C44.0668 82.7333 40.7335 82.6 39.9335 83.9333Z" fill="black"/>
<path d="M53.1331 85.4001C52.7331 86.0667 52.8665 90.8667 53.2665 96.0667C54.0665 105.133 54.1998 105.667 57.2665 105.667C60.4665 105.667 60.4665 105.533 59.5331 95.9334C59.1331 90.7334 58.3331 85.9334 58.0665 85.2667C57.2665 83.9334 53.9331 84.0667 53.1331 85.4001Z" fill="black"/>
<path d="M151.611 81.6836C148.786 81.6836 144.593 81.0456 139.033 79.7695C138.76 78.6758 138.486 77.377 138.213 75.873C137.985 74.3236 137.78 72.8652 137.598 71.498C137.461 70.1309 137.393 69.1966 137.393 68.6953C137.484 68.3307 137.848 68.1484 138.486 68.1484C139.671 68.1484 140.332 68.3307 140.469 68.6953C140.651 69.5156 140.97 70.4271 141.426 71.4297C141.882 72.3867 142.52 73.4121 143.34 74.5059C144.115 75.6452 145.163 76.5794 146.484 77.3086C147.852 77.9922 149.378 78.334 151.064 78.334C153.206 78.334 154.984 77.696 156.396 76.4199C157.809 75.1439 158.516 73.2298 158.516 70.6777C158.516 68.8548 157.969 67.4421 156.875 66.4395C155.827 65.3913 154.688 64.4342 153.457 63.5684C153.138 63.3861 152.637 63.0898 151.953 62.6797C151.27 62.2695 150.586 61.8594 149.902 61.4492C149.264 60.9935 148.763 60.6745 148.398 60.4922C147.533 59.9453 146.803 59.4896 146.211 59.125C145.664 58.7604 145.14 58.3958 144.639 58.0312C144.137 57.6211 143.522 57.1198 142.793 56.5273C141.335 55.3424 140.195 53.998 139.375 52.4941C138.6 50.9902 138.213 49.3268 138.213 47.5039C138.213 45.2253 138.874 43.1745 140.195 41.3516C141.562 39.4831 143.317 38.0247 145.459 36.9766C147.601 35.8828 149.857 35.3359 152.227 35.3359C153.503 35.3359 154.619 35.4043 155.576 35.541C156.533 35.6777 157.262 35.8145 157.764 35.9512C158.265 36.0879 158.88 36.2474 159.609 36.4297C160.339 36.612 161.501 36.8854 163.096 37.25C163.643 40.3034 163.916 43.8125 163.916 47.7773C163.87 48.1875 163.597 48.3926 163.096 48.3926C161.865 48.3926 161.204 48.1875 161.113 47.7773C160.931 46.3646 160.43 44.9746 159.609 43.6074C158.789 42.1947 157.718 41.0098 156.396 40.0527C155.12 39.0957 153.662 38.6172 152.021 38.6172C149.925 38.6172 148.307 39.2096 147.168 40.3945C146.074 41.5794 145.527 43.1745 145.527 45.1797C145.527 46.4557 145.755 47.4583 146.211 48.1875C146.667 48.8711 147.259 49.623 147.988 50.4434C148.49 50.9902 149.31 51.6738 150.449 52.4941C151.589 53.3145 152.865 54.1803 154.277 55.0918C155.69 55.9577 157.057 56.778 158.379 57.5527C160.885 59.0111 162.822 60.6061 164.189 62.3379C165.557 64.0241 166.24 66.2799 166.24 69.1055C166.24 71.5208 165.557 73.6855 164.189 75.5996C162.822 77.5137 161.022 79.0176 158.789 80.1113C156.602 81.1595 154.209 81.6836 151.611 81.6836ZM185.996 81.4785C183.125 81.4785 180.505 80.7949 178.135 79.4277C175.811 78.015 173.942 76.1465 172.529 73.8223C171.162 71.498 170.479 68.9232 170.479 66.0977C170.479 63.2266 171.162 60.6517 172.529 58.373C173.896 56.0488 175.742 54.2031 178.066 52.8359C180.436 51.4688 183.057 50.7852 185.928 50.7852C188.799 50.7852 191.396 51.4688 193.721 52.8359C196.09 54.2031 197.959 56.0488 199.326 58.373C200.739 60.6973 201.445 63.2721 201.445 66.0977C201.445 68.9232 200.762 71.498 199.395 73.8223C198.027 76.1465 196.182 78.015 193.857 79.4277C191.533 80.7949 188.913 81.4785 185.996 81.4785ZM186.68 78.2656C188.138 78.2656 189.368 77.7871 190.371 76.8301C191.374 75.873 192.148 74.597 192.695 73.002C193.242 71.3613 193.516 69.6068 193.516 67.7383C193.516 65.2773 193.174 63.0215 192.49 60.9707C191.852 58.8743 190.895 57.1882 189.619 55.9121C188.389 54.6361 186.862 53.998 185.039 53.998C183.626 53.998 182.396 54.4766 181.348 55.4336C180.345 56.3906 179.57 57.6667 179.023 59.2617C178.522 60.8568 178.271 62.6113 178.271 64.5254C178.271 66.9863 178.59 69.265 179.229 71.3613C179.912 73.4121 180.892 75.0755 182.168 76.3516C183.444 77.6276 184.948 78.2656 186.68 78.2656ZM205.41 81.2051C205.228 81.0228 205.137 80.5898 205.137 79.9062C205.137 79.2682 205.228 78.9492 205.41 78.9492C205.775 78.9492 206.253 78.8581 206.846 78.6758C207.438 78.4935 207.985 78.2656 208.486 77.9922C209.033 77.7188 209.329 77.4909 209.375 77.3086C209.557 76.5339 209.694 75.7135 209.785 74.8477C209.876 73.9818 209.922 73.1159 209.922 72.25V43.8125C209.922 42.0807 209.785 40.5312 209.512 39.1641C209.329 38.4349 208.19 38.0703 206.094 38.0703H205.41C205.137 38.0703 205 37.7969 205 37.25C205 36.5208 205.137 36.1562 205.41 36.1562C207.917 35.9284 210.173 35.541 212.178 34.9941C214.229 34.4473 215.596 34.0371 216.279 33.7637L216.758 33.5586H216.895C217.077 33.5586 217.259 33.6953 217.441 33.9688C217.669 34.2422 217.806 34.4701 217.852 34.6523C217.305 36.3385 217.031 38.4805 217.031 41.0781V71.1562C217.031 74.0273 217.191 76.0781 217.51 77.3086C217.601 77.4909 217.897 77.7188 218.398 77.9922C218.9 78.2656 219.447 78.4935 220.039 78.6758C220.632 78.8581 221.042 78.9492 221.27 78.9492C221.406 78.9492 221.475 79.2682 221.475 79.9062C221.52 80.5443 221.497 80.9772 221.406 81.2051C219.993 81.1139 218.558 81.0228 217.1 80.9316C215.641 80.8405 214.434 80.7949 213.477 80.7949C212.064 80.7949 210.605 80.8405 209.102 80.9316C207.643 81.0228 206.413 81.1139 205.41 81.2051ZM233.096 81.4785C230.817 81.4785 228.949 80.8633 227.49 79.6328C226.077 78.3568 225.371 76.625 225.371 74.4375C225.371 72.9336 225.85 71.5664 226.807 70.3359C227.809 69.1055 229.199 68.0573 230.977 67.1914C231.615 66.8724 232.184 66.6217 232.686 66.4395C233.232 66.2116 233.734 66.0065 234.189 65.8242C235.785 65.3229 237.106 64.9128 238.154 64.5938C239.248 64.2747 240.023 64.0469 240.479 63.9102C240.889 63.6823 241.094 63.3177 241.094 62.8164V59.0566C241.094 57.4616 240.729 56.2083 240 55.2969C239.271 54.3854 238.291 53.9297 237.061 53.9297C235.693 53.9297 234.622 54.3626 233.848 55.2285C233.073 56.0488 232.686 57.2337 232.686 58.7832C232.686 59.6947 232.344 60.3783 231.66 60.834C230.977 61.2441 230.202 61.4492 229.336 61.4492C227.65 61.4492 226.465 60.9023 225.781 59.8086C225.781 58.7148 226.191 57.6439 227.012 56.5957C227.832 55.502 228.903 54.5221 230.225 53.6562C231.592 52.7904 233.096 52.1068 234.736 51.6055C236.377 51.0586 238.018 50.7852 239.658 50.7852C242.484 50.7852 244.603 51.5371 246.016 53.041C247.428 54.4993 248.135 57.0286 248.135 60.6289V74.0957C248.135 75.9642 248.887 76.8984 250.391 76.8984C251.074 76.8984 251.849 76.6022 252.715 76.0098C252.988 76.0553 253.125 76.306 253.125 76.7617C253.125 77.6276 252.988 78.3112 252.715 78.8125C252.031 79.3594 251.12 79.929 249.98 80.5215C248.841 81.1139 247.747 81.4102 246.699 81.4102C245.651 81.4102 244.626 81.0228 243.623 80.248C242.62 79.4733 241.96 78.6302 241.641 77.7188C241.276 78.0378 241.003 78.2656 240.82 78.4023C240.638 78.5391 240.342 78.7669 239.932 79.0859C238.975 79.724 237.926 80.2936 236.787 80.7949C235.648 81.2507 234.417 81.4785 233.096 81.4785ZM236.582 77.0352C237.812 77.0352 238.861 76.7161 239.727 76.0781C240.638 75.4401 241.094 74.7109 241.094 73.8906V66.918L236.719 68.4219C235.671 68.8776 234.736 69.4245 233.916 70.0625C233.096 70.7005 232.686 71.612 232.686 72.7969C232.686 74.2552 233.05 75.3262 233.779 76.0098C234.508 76.6934 235.443 77.0352 236.582 77.0352ZM256.543 81.2734C256.361 81.0911 256.27 80.6582 256.27 79.9746C256.27 79.291 256.361 78.9492 256.543 78.9492C256.908 78.9492 257.409 78.8809 258.047 78.7441C258.73 78.5618 259.346 78.3568 259.893 78.1289C260.485 77.8555 260.804 77.6276 260.85 77.4453C261.169 76.1693 261.328 74.5059 261.328 72.4551V61.3125C261.328 59.2617 260.964 57.8034 260.234 56.9375C259.824 56.4362 259.3 56.1172 258.662 55.9805C258.07 55.7982 257.546 55.6842 257.09 55.6387C256.634 55.5475 256.406 55.4336 256.406 55.2969C256.406 54.0208 256.52 53.3372 256.748 53.2461C257.796 53.1549 259.323 52.9271 261.328 52.5625C263.379 52.1979 265.293 51.7878 267.07 51.332C267.161 51.2865 267.367 51.2409 267.686 51.1953C268.05 51.1042 268.255 51.0586 268.301 51.0586C268.483 51.0586 268.643 51.2181 268.779 51.5371C268.916 51.8561 268.984 52.1068 268.984 52.2891C268.893 52.9271 268.825 53.4512 268.779 53.8613C268.734 54.2715 268.711 54.5677 268.711 54.75C268.711 54.9779 268.757 55.0918 268.848 55.0918C268.893 55.0918 268.984 55.0234 269.121 54.8867C270.215 53.793 271.605 52.8359 273.291 52.0156C275.023 51.1953 276.777 50.7852 278.555 50.7852C284.434 50.7852 287.373 55.4564 287.373 64.7988V71.293C287.373 74.1641 287.533 76.2148 287.852 77.4453C287.943 77.6276 288.262 77.8555 288.809 78.1289C289.401 78.3568 290.016 78.5618 290.654 78.7441C291.338 78.8809 291.816 78.9492 292.09 78.9492C292.227 78.9492 292.295 79.291 292.295 79.9746C292.34 80.6126 292.318 81.0456 292.227 81.2734C292.044 81.2279 291.406 81.1595 290.312 81.0684C289.264 81.0228 288.102 80.9772 286.826 80.9316C285.596 80.8405 284.616 80.7949 283.887 80.7949C283.158 80.7949 282.201 80.8405 281.016 80.9316C279.876 80.9772 278.783 81.0228 277.734 81.0684C276.732 81.1595 276.094 81.2279 275.82 81.2734C275.638 81.0911 275.547 80.6582 275.547 79.9746C275.547 79.291 275.638 78.9492 275.82 78.9492C276.185 78.9492 276.663 78.8809 277.256 78.7441C277.848 78.5618 278.395 78.3568 278.896 78.1289C279.443 77.8555 279.74 77.6276 279.785 77.4453C279.967 76.7617 280.104 76.0098 280.195 75.1895C280.286 74.3691 280.332 73.4577 280.332 72.4551V65.9609C280.332 62.1784 279.808 59.5352 278.76 58.0312C277.757 56.5273 276.139 55.7754 273.906 55.7754C272.448 55.7754 271.172 56.1855 270.078 57.0059C268.984 57.7806 268.438 58.6237 268.438 59.5352V71.293C268.438 74.1641 268.597 76.2148 268.916 77.4453C269.007 77.6276 269.326 77.8555 269.873 78.1289C270.42 78.3568 271.012 78.5618 271.65 78.7441C272.288 78.8809 272.721 78.9492 272.949 78.9492C273.132 78.9492 273.223 79.291 273.223 79.9746C273.268 80.6126 273.245 81.0456 273.154 81.2734C272.926 81.2279 272.266 81.1595 271.172 81.0684C270.124 81.0228 269.007 80.9772 267.822 80.9316C266.637 80.8405 265.68 80.7949 264.951 80.7949C264.222 80.7949 263.242 80.8405 262.012 80.9316C260.781 80.9772 259.619 81.0228 258.525 81.0684C257.477 81.1595 256.816 81.2279 256.543 81.2734ZM303.916 81.4785C301.637 81.4785 299.769 80.8633 298.311 79.6328C296.898 78.3568 296.191 76.625 296.191 74.4375C296.191 72.9336 296.67 71.5664 297.627 70.3359C298.63 69.1055 300.02 68.0573 301.797 67.1914C302.435 66.8724 303.005 66.6217 303.506 66.4395C304.053 66.2116 304.554 66.0065 305.01 65.8242C306.605 65.3229 307.926 64.9128 308.975 64.5938C310.068 64.2747 310.843 64.0469 311.299 63.9102C311.709 63.6823 311.914 63.3177 311.914 62.8164V59.0566C311.914 57.4616 311.549 56.2083 310.82 55.2969C310.091 54.3854 309.111 53.9297 307.881 53.9297C306.514 53.9297 305.443 54.3626 304.668 55.2285C303.893 56.0488 303.506 57.2337 303.506 58.7832C303.506 59.6947 303.164 60.3783 302.48 60.834C301.797 61.2441 301.022 61.4492 300.156 61.4492C298.47 61.4492 297.285 60.9023 296.602 59.8086C296.602 58.7148 297.012 57.6439 297.832 56.5957C298.652 55.502 299.723 54.5221 301.045 53.6562C302.412 52.7904 303.916 52.1068 305.557 51.6055C307.197 51.0586 308.838 50.7852 310.479 50.7852C313.304 50.7852 315.423 51.5371 316.836 53.041C318.249 54.4993 318.955 57.0286 318.955 60.6289V74.0957C318.955 75.9642 319.707 76.8984 321.211 76.8984C321.895 76.8984 322.669 76.6022 323.535 76.0098C323.809 76.0553 323.945 76.306 323.945 76.7617C323.945 77.6276 323.809 78.3112 323.535 78.8125C322.852 79.3594 321.94 79.929 320.801 80.5215C319.661 81.1139 318.568 81.4102 317.52 81.4102C316.471 81.4102 315.446 81.0228 314.443 80.248C313.441 79.4733 312.78 78.6302 312.461 77.7188C312.096 78.0378 311.823 78.2656 311.641 78.4023C311.458 78.5391 311.162 78.7669 310.752 79.0859C309.795 79.724 308.747 80.2936 307.607 80.7949C306.468 81.2507 305.238 81.4785 303.916 81.4785ZM307.402 77.0352C308.633 77.0352 309.681 76.7161 310.547 76.0781C311.458 75.4401 311.914 74.7109 311.914 73.8906V66.918L307.539 68.4219C306.491 68.8776 305.557 69.4245 304.736 70.0625C303.916 70.7005 303.506 71.612 303.506 72.7969C303.506 74.2552 303.87 75.3262 304.6 76.0098C305.329 76.6934 306.263 77.0352 307.402 77.0352ZM356.074 81.6836C353.249 81.6836 349.056 81.0456 343.496 79.7695C343.223 78.6758 342.949 77.377 342.676 75.873C342.448 74.3236 342.243 72.8652 342.061 71.498C341.924 70.1309 341.855 69.1966 341.855 68.6953C341.947 68.3307 342.311 68.1484 342.949 68.1484C344.134 68.1484 344.795 68.3307 344.932 68.6953C345.114 69.5156 345.433 70.4271 345.889 71.4297C346.344 72.3867 346.982 73.4121 347.803 74.5059C348.577 75.6452 349.626 76.5794 350.947 77.3086C352.314 77.9922 353.841 78.334 355.527 78.334C357.669 78.334 359.447 77.696 360.859 76.4199C362.272 75.1439 362.979 73.2298 362.979 70.6777C362.979 68.8548 362.432 67.4421 361.338 66.4395C360.29 65.3913 359.15 64.4342 357.92 63.5684C357.601 63.3861 357.1 63.0898 356.416 62.6797C355.732 62.2695 355.049 61.8594 354.365 61.4492C353.727 60.9935 353.226 60.6745 352.861 60.4922C351.995 59.9453 351.266 59.4896 350.674 59.125C350.127 58.7604 349.603 58.3958 349.102 58.0312C348.6 57.6211 347.985 57.1198 347.256 56.5273C345.798 55.3424 344.658 53.998 343.838 52.4941C343.063 50.9902 342.676 49.3268 342.676 47.5039C342.676 45.2253 343.337 43.1745 344.658 41.3516C346.025 39.4831 347.78 38.0247 349.922 36.9766C352.064 35.8828 354.32 35.3359 356.689 35.3359C357.965 35.3359 359.082 35.4043 360.039 35.541C360.996 35.6777 361.725 35.8145 362.227 35.9512C362.728 36.0879 363.343 36.2474 364.072 36.4297C364.801 36.612 365.964 36.8854 367.559 37.25C368.105 40.3034 368.379 43.8125 368.379 47.7773C368.333 48.1875 368.06 48.3926 367.559 48.3926C366.328 48.3926 365.667 48.1875 365.576 47.7773C365.394 46.3646 364.893 44.9746 364.072 43.6074C363.252 42.1947 362.181 41.0098 360.859 40.0527C359.583 39.0957 358.125 38.6172 356.484 38.6172C354.388 38.6172 352.77 39.2096 351.631 40.3945C350.537 41.5794 349.99 43.1745 349.99 45.1797C349.99 46.4557 350.218 47.4583 350.674 48.1875C351.13 48.8711 351.722 49.623 352.451 50.4434C352.952 50.9902 353.773 51.6738 354.912 52.4941C356.051 53.3145 357.327 54.1803 358.74 55.0918C360.153 55.9577 361.52 56.778 362.842 57.5527C365.348 59.0111 367.285 60.6061 368.652 62.3379C370.02 64.0241 370.703 66.2799 370.703 69.1055C370.703 71.5208 370.02 73.6855 368.652 75.5996C367.285 77.5137 365.485 79.0176 363.252 80.1113C361.064 81.1595 358.672 81.6836 356.074 81.6836ZM382.734 81.4785C380.456 81.4785 378.587 80.8633 377.129 79.6328C375.716 78.3568 375.01 76.625 375.01 74.4375C375.01 72.9336 375.488 71.5664 376.445 70.3359C377.448 69.1055 378.838 68.0573 380.615 67.1914C381.253 66.8724 381.823 66.6217 382.324 66.4395C382.871 66.2116 383.372 66.0065 383.828 65.8242C385.423 65.3229 386.745 64.9128 387.793 64.5938C388.887 64.2747 389.661 64.0469 390.117 63.9102C390.527 63.6823 390.732 63.3177 390.732 62.8164V59.0566C390.732 57.4616 390.368 56.2083 389.639 55.2969C388.91 54.3854 387.93 53.9297 386.699 53.9297C385.332 53.9297 384.261 54.3626 383.486 55.2285C382.712 56.0488 382.324 57.2337 382.324 58.7832C382.324 59.6947 381.982 60.3783 381.299 60.834C380.615 61.2441 379.84 61.4492 378.975 61.4492C377.288 61.4492 376.104 60.9023 375.42 59.8086C375.42 58.7148 375.83 57.6439 376.65 56.5957C377.471 55.502 378.542 54.5221 379.863 53.6562C381.23 52.7904 382.734 52.1068 384.375 51.6055C386.016 51.0586 387.656 50.7852 389.297 50.7852C392.122 50.7852 394.242 51.5371 395.654 53.041C397.067 54.4993 397.773 57.0286 397.773 60.6289V74.0957C397.773 75.9642 398.525 76.8984 400.029 76.8984C400.713 76.8984 401.488 76.6022 402.354 76.0098C402.627 76.0553 402.764 76.306 402.764 76.7617C402.764 77.6276 402.627 78.3112 402.354 78.8125C401.67 79.3594 400.758 79.929 399.619 80.5215C398.48 81.1139 397.386 81.4102 396.338 81.4102C395.29 81.4102 394.264 81.0228 393.262 80.248C392.259 79.4733 391.598 78.6302 391.279 77.7188C390.915 78.0378 390.641 78.2656 390.459 78.4023C390.277 78.5391 389.98 78.7669 389.57 79.0859C388.613 79.724 387.565 80.2936 386.426 80.7949C385.286 81.2507 384.056 81.4785 382.734 81.4785ZM386.221 77.0352C387.451 77.0352 388.499 76.7161 389.365 76.0781C390.277 75.4401 390.732 74.7109 390.732 73.8906V66.918L386.357 68.4219C385.309 68.8776 384.375 69.4245 383.555 70.0625C382.734 70.7005 382.324 71.612 382.324 72.7969C382.324 74.2552 382.689 75.3262 383.418 76.0098C384.147 76.6934 385.081 77.0352 386.221 77.0352ZM406.182 81.2734C405.863 80.9544 405.703 80.4987 405.703 79.9062C405.749 79.2682 405.908 78.9492 406.182 78.9492C406.546 78.9492 407.048 78.8809 407.686 78.7441C408.324 78.5618 408.916 78.3568 409.463 78.1289C410.01 77.8555 410.306 77.6276 410.352 77.4453C410.762 75.8503 410.967 73.9818 410.967 71.8398V56.1172C410.967 55.7982 410.83 55.6387 410.557 55.6387H406.455C406.364 55.6387 406.318 55.502 406.318 55.2285C406.318 54.7272 406.637 54.0664 407.275 53.2461C407.913 52.4258 408.643 52.0156 409.463 52.0156H410.557C410.83 52.0156 410.967 51.8789 410.967 51.6055V50.9219C410.967 47.7318 411.628 44.8151 412.949 42.1719C414.271 39.5286 416.003 37.4323 418.145 35.8828C420.332 34.2878 422.725 33.4902 425.322 33.4902C427.236 33.4902 428.809 33.7409 430.039 34.2422C431.315 34.6979 432.158 35.2676 432.568 35.9512C432.751 37.3639 432.614 38.64 432.158 39.7793C431.748 40.873 430.928 41.4199 429.697 41.4199C429.105 41.4199 428.558 41.1921 428.057 40.7363C427.601 40.2806 427.145 39.7565 426.689 39.1641C426.234 38.5716 425.732 38.0475 425.186 37.5918C424.639 37.1361 424.001 36.9082 423.271 36.9082C421.54 36.9082 420.218 38.0475 419.307 40.3262C418.395 42.5592 417.939 45.2936 417.939 48.5293V51.6738C417.939 51.7194 417.985 51.7878 418.076 51.8789C418.167 51.9701 418.258 52.0156 418.35 52.0156H425.869C426.051 52.0156 426.165 52.0384 426.211 52.084C426.257 52.1296 426.279 52.2663 426.279 52.4941C426.279 53.4967 426.006 54.5449 425.459 55.6387H418.35C418.076 55.6387 417.939 55.7754 417.939 56.0488V71.293C417.939 72.6146 417.985 73.7995 418.076 74.8477C418.167 75.8503 418.304 76.7161 418.486 77.4453C418.577 77.6276 418.896 77.8555 419.443 78.1289C419.99 78.3568 420.583 78.5618 421.221 78.7441C421.859 78.8809 422.314 78.9492 422.588 78.9492C422.725 78.9492 422.793 79.291 422.793 79.9746C422.839 80.6126 422.816 81.0456 422.725 81.2734C422.542 81.2279 421.904 81.1595 420.811 81.0684C419.762 81.0228 418.6 80.9772 417.324 80.9316C416.094 80.8405 415.114 80.7949 414.385 80.7949C413.656 80.7949 412.676 80.8405 411.445 80.9316C410.26 80.9772 409.144 81.0228 408.096 81.0684C407.093 81.1595 406.455 81.2279 406.182 81.2734ZM437.49 81.4785C435.212 81.4785 433.343 80.8633 431.885 79.6328C430.472 78.3568 429.766 76.625 429.766 74.4375C429.766 72.9336 430.244 71.5664 431.201 70.3359C432.204 69.1055 433.594 68.0573 435.371 67.1914C436.009 66.8724 436.579 66.6217 437.08 66.4395C437.627 66.2116 438.128 66.0065 438.584 65.8242C440.179 65.3229 441.501 64.9128 442.549 64.5938C443.643 64.2747 444.417 64.0469 444.873 63.9102C445.283 63.6823 445.488 63.3177 445.488 62.8164V59.0566C445.488 57.4616 445.124 56.2083 444.395 55.2969C443.665 54.3854 442.686 53.9297 441.455 53.9297C440.088 53.9297 439.017 54.3626 438.242 55.2285C437.467 56.0488 437.08 57.2337 437.08 58.7832C437.08 59.6947 436.738 60.3783 436.055 60.834C435.371 61.2441 434.596 61.4492 433.73 61.4492C432.044 61.4492 430.859 60.9023 430.176 59.8086C430.176 58.7148 430.586 57.6439 431.406 56.5957C432.227 55.502 433.298 54.5221 434.619 53.6562C435.986 52.7904 437.49 52.1068 439.131 51.6055C440.771 51.0586 442.412 50.7852 444.053 50.7852C446.878 50.7852 448.997 51.5371 450.41 53.041C451.823 54.4993 452.529 57.0286 452.529 60.6289V74.0957C452.529 75.9642 453.281 76.8984 454.785 76.8984C455.469 76.8984 456.243 76.6022 457.109 76.0098C457.383 76.0553 457.52 76.306 457.52 76.7617C457.52 77.6276 457.383 78.3112 457.109 78.8125C456.426 79.3594 455.514 79.929 454.375 80.5215C453.236 81.1139 452.142 81.4102 451.094 81.4102C450.046 81.4102 449.02 81.0228 448.018 80.248C447.015 79.4733 446.354 78.6302 446.035 77.7188C445.671 78.0378 445.397 78.2656 445.215 78.4023C445.033 78.5391 444.736 78.7669 444.326 79.0859C443.369 79.724 442.321 80.2936 441.182 80.7949C440.042 81.2507 438.812 81.4785 437.49 81.4785ZM440.977 77.0352C442.207 77.0352 443.255 76.7161 444.121 76.0781C445.033 75.4401 445.488 74.7109 445.488 73.8906V66.918L441.113 68.4219C440.065 68.8776 439.131 69.4245 438.311 70.0625C437.49 70.7005 437.08 71.612 437.08 72.7969C437.08 74.2552 437.445 75.3262 438.174 76.0098C438.903 76.6934 439.837 77.0352 440.977 77.0352ZM460.938 81.2734C460.755 81.0911 460.664 80.6582 460.664 79.9746C460.664 79.291 460.755 78.9492 460.938 78.9492C461.302 78.9492 461.803 78.8809 462.441 78.7441C463.125 78.5618 463.74 78.3568 464.287 78.1289C464.88 77.8555 465.199 77.6276 465.244 77.4453C465.563 76.1693 465.723 74.5059 465.723 72.4551V61.3125C465.723 59.125 465.358 57.6667 464.629 56.9375C464.219 56.4362 463.717 56.0944 463.125 55.9121C462.533 55.6842 461.986 55.5475 461.484 55.502C461.029 55.4564 460.801 55.388 460.801 55.2969C460.801 54.0208 460.915 53.3372 461.143 53.2461C462.464 53.1549 463.9 52.9499 465.449 52.6309C467.044 52.2663 468.89 51.8789 470.986 51.4688C471.67 51.332 472.103 51.2409 472.285 51.1953C472.513 51.1042 472.65 51.0586 472.695 51.0586C472.878 51.0586 473.037 51.2181 473.174 51.5371C473.311 51.8105 473.379 52.0612 473.379 52.2891C473.105 54.2031 472.969 55.2969 472.969 55.5703C473.789 54.3398 474.906 53.2461 476.318 52.2891C477.731 51.2865 479.167 50.7852 480.625 50.7852C483.132 50.7852 485 51.5371 486.23 53.041C486.23 56.9147 485.137 58.8516 482.949 58.8516C482.174 58.8516 481.286 58.3958 480.283 57.4844C479.281 56.5729 478.301 56.1172 477.344 56.1172C476.387 56.1172 475.566 56.459 474.883 57.1426C474.199 57.8262 473.675 58.6693 473.311 59.6719C472.992 60.6745 472.832 61.6999 472.832 62.748V71.293C472.832 74.1641 472.992 76.2148 473.311 77.4453C473.402 77.6276 473.721 77.8555 474.268 78.1289C474.814 78.3568 475.407 78.5618 476.045 78.7441C476.683 78.8809 477.139 78.9492 477.412 78.9492C477.549 78.9492 477.617 79.291 477.617 79.9746C477.663 80.6126 477.663 81.0456 477.617 81.2734C477.389 81.2279 476.729 81.1595 475.635 81.0684C474.587 81.0228 473.447 80.9772 472.217 80.9316C471.032 80.8405 470.075 80.7949 469.346 80.7949C468.617 80.7949 467.637 80.8405 466.406 80.9316C465.176 80.9772 464.014 81.0228 462.92 81.0684C461.872 81.1595 461.211 81.2279 460.938 81.2734ZM489.99 81.2051C489.808 81.0228 489.717 80.5898 489.717 79.9062C489.717 79.2682 489.808 78.9492 489.99 78.9492C490.355 78.9492 490.833 78.8581 491.426 78.6758C492.018 78.4935 492.565 78.2656 493.066 77.9922C493.613 77.7188 493.91 77.4909 493.955 77.3086C494.137 76.5339 494.274 75.7135 494.365 74.8477C494.456 73.9818 494.502 73.1159 494.502 72.25V61.2441C494.502 59.1022 494.137 57.6439 493.408 56.8691C492.998 56.3678 492.474 56.026 491.836 55.8438C491.243 55.6615 490.697 55.5475 490.195 55.502C489.74 55.4564 489.512 55.388 489.512 55.2969C489.512 53.9297 489.626 53.2461 489.854 53.2461C491.312 53.0638 492.907 52.8132 494.639 52.4941C496.416 52.1296 498.011 51.7878 499.424 51.4688L501.611 50.9219C501.93 50.9219 502.09 51.3776 502.09 52.2891C502.09 52.8815 501.999 53.7474 501.816 54.8867C501.68 55.9805 501.611 57.0742 501.611 58.168V71.1562C501.611 74.0273 501.771 76.0781 502.09 77.3086C502.181 77.4909 502.477 77.7188 502.979 77.9922C503.48 78.2656 504.027 78.4935 504.619 78.6758C505.212 78.8581 505.622 78.9492 505.85 78.9492C505.986 78.9492 506.055 79.2682 506.055 79.9062C506.1 80.5443 506.077 80.9772 505.986 81.2051C504.574 81.1139 503.138 81.0228 501.68 80.9316C500.221 80.8405 499.014 80.7949 498.057 80.7949C496.644 80.7949 495.186 80.8405 493.682 80.9316C492.223 81.0228 490.993 81.1139 489.99 81.2051ZM497.51 43.8125C496.37 43.8125 495.391 43.4023 494.57 42.582C493.75 41.7617 493.34 40.7819 493.34 39.6426C493.34 38.5033 493.75 37.5462 494.57 36.7715C495.391 35.9512 496.37 35.541 497.51 35.541C498.649 35.541 499.606 35.9512 500.381 36.7715C501.201 37.5462 501.611 38.5033 501.611 39.6426C501.611 40.7819 501.201 41.7617 500.381 42.582C499.606 43.4023 498.649 43.8125 497.51 43.8125Z" fill="black"/>
</svg>
