<?xml version="1.0" standalone="no"?>
<!DOCTYPE svg PUBLIC "-//W3C//DTD SVG 20010904//EN"
 "http://www.w3.org/TR/2001/REC-SVG-20010904/DTD/svg10.dtd">
<svg version="1.0" xmlns="http://www.w3.org/2000/svg"
 width="1408.000000pt" height="768.000000pt" viewBox="0 0 1408.000000 768.000000"
 preserveAspectRatio="xMidYMid meet">

<g transform="translate(0.000000,768.000000) scale(0.100000,-0.100000)"
fill="#000000" stroke="none">
<path d="M4120 4193 c0 -77 8 -103 31 -103 16 0 19 8 19 49 0 76 -10 111 -31
111 -16 0 -19 -8 -19 -57z"/>
<path d="M4259 4203 c-22 -57 -39 -106 -39 -114 0 -5 10 -9 23 -9 19 0 26 10
45 67 11 36 19 70 16 75 -11 17 -35 7 -45 -19z"/>
<path d="M3988 4210 c-15 -9 -15 -15 9 -68 14 -31 30 -62 35 -69 12 -15 38 -6
38 13 0 13 -57 134 -63 134 -1 0 -10 -5 -19 -10z"/>
<path d="M4353 4106 c-24 -29 -43 -58 -43 -65 0 -10 4 -12 29 -15 5 -1 29 24
54 55 34 42 43 59 34 68 -19 19 -30 12 -74 -43z"/>
<path d="M3862 4117 c-9 -10 1 -26 43 -67 52 -52 56 -53 72 -37 17 17 16 20
-34 67 -55 53 -64 57 -81 37z"/>
<path d="M10003 4115 c-20 -8 -39 -28 -49 -48 -49 -103 87 -198 167 -118 51
51 36 131 -31 166 -35 18 -46 18 -87 0z m102 -30 c52 -52 19 -145 -51 -145
-46 0 -63 9 -79 41 -22 42 -18 67 14 100 38 37 82 39 116 4z"/>
<path d="M10007 4039 c-3 -23 -2 -51 3 -63 7 -20 8 -20 15 7 4 15 10 27 13 27
3 0 19 -12 35 -27 28 -27 29 -27 17 -4 -10 19 -9 28 0 47 17 32 -1 54 -45 54
-30 0 -33 -3 -38 -41z m62 22 c17 -11 6 -31 -18 -31 -23 0 -31 9 -24 26 6 16
22 18 42 5z"/>
<path d="M4728 4111 c-82 -27 -128 -86 -128 -166 0 -87 49 -131 198 -175 78
-23 112 -47 112 -81 0 -86 -121 -100 -235 -28 l-46 29 -19 -22 c-45 -54 -37
-69 59 -115 63 -30 157 -40 218 -24 86 23 143 113 127 199 -12 62 -63 104
-178 142 -136 45 -160 72 -113 126 33 38 99 37 177 -3 l56 -30 23 39 c27 47
21 57 -50 87 -55 24 -159 35 -201 22z"/>
<path d="M5393 4111 c-82 -21 -159 -88 -196 -171 -28 -62 -28 -178 0 -241 47
-105 137 -168 253 -177 125 -9 229 50 288 163 36 67 38 195 6 266 -28 59 -85
116 -143 142 -50 22 -156 31 -208 18z m167 -111 c22 -11 52 -39 67 -62 24 -36
28 -51 28 -118 0 -67 -4 -82 -28 -118 -64 -98 -209 -111 -289 -26 -30 32 -58
102 -58 143 0 75 52 160 115 187 45 20 120 17 165 -6z"/>
<path d="M6882 4105 c-89 -28 -167 -106 -193 -196 -16 -52 -7 -176 16 -224 43
-87 134 -150 238 -162 42 -5 60 -13 93 -44 78 -70 171 -76 257 -17 27 19 27
20 10 50 -23 38 -36 43 -65 25 -40 -25 -65 -28 -104 -12 l-37 15 40 29 c97 71
138 157 131 276 -4 57 -12 85 -35 126 -67 121 -215 177 -351 134z m176 -104
c68 -35 102 -95 102 -181 0 -127 -81 -207 -201 -198 -189 14 -241 280 -74 375
50 28 122 30 173 4z"/>
<path d="M8925 4106 c-49 -18 -102 -77 -111 -122 -19 -100 29 -157 169 -203
51 -17 102 -38 114 -46 44 -31 33 -88 -23 -111 -48 -20 -127 -4 -183 37 -23
16 -44 29 -48 29 -5 0 -18 -16 -31 -36 -22 -34 -23 -37 -6 -55 52 -58 202 -94
291 -70 108 29 163 140 117 237 -20 42 -71 73 -182 109 -94 31 -112 44 -112
86 0 22 8 34 33 49 40 26 91 19 164 -20 l52 -28 25 42 c23 38 24 42 8 54 -63
51 -204 75 -277 48z"/>
<path d="M5960 3821 l0 -288 31 -7 c17 -3 114 -6 215 -6 l184 0 0 50 0 50
-160 0 -160 0 0 245 0 245 -55 0 -55 0 0 -289z"/>
<path d="M7462 3908 c4 -221 11 -254 66 -311 51 -54 98 -72 193 -72 78 0 90 3
134 30 33 21 57 47 79 85 l31 55 3 208 3 207 -49 0 -50 0 -4 -192 c-3 -172 -5
-197 -23 -228 -57 -97 -201 -92 -252 10 -21 41 -23 57 -23 227 l0 183 -56 0
-56 0 4 -202z"/>
<path d="M8190 3816 l0 -295 220 -1 220 -1 0 51 0 50 -170 0 -170 0 0 80 0 80
150 0 150 0 0 45 0 45 -150 0 -150 0 0 75 0 75 170 0 170 0 0 45 0 45 -220 0
-220 0 0 -294z"/>
<path d="M9350 4065 l0 -45 95 0 95 0 0 -251 0 -250 53 3 52 3 3 248 2 247 95
0 95 0 0 45 0 45 -245 0 -245 0 0 -45z"/>
<path d="M4075 4031 c-114 -51 -148 -193 -72 -293 48 -62 88 -80 169 -76 57 3
73 8 105 34 58 46 86 107 79 173 -13 139 -154 220 -281 162z m167 -49 c43 -25
71 -86 66 -141 -6 -60 -31 -95 -86 -122 -71 -35 -139 -14 -189 61 -69 100 25
242 147 224 19 -3 47 -13 62 -22z"/>
<path d="M4428 4009 c-61 -31 -64 -35 -48 -59 8 -13 19 -10 75 20 41 22 64 40
63 50 -5 24 -29 21 -90 -11z"/>
<path d="M3790 3982 c0 -15 15 -26 63 -45 60 -24 87 -23 87 5 0 10 -81 47
-122 55 -23 5 -28 2 -28 -15z"/>
<path d="M4475 3890 c-62 -4 -70 -7 -70 -25 0 -13 6 -20 18 -19 9 0 44 1 77 2
52 2 60 5 60 21 0 26 -3 27 -85 21z"/>
<path d="M3763 3844 c-10 -28 11 -35 85 -28 61 6 72 10 72 25 0 17 -9 19 -75
19 -59 0 -77 -3 -82 -16z"/>
<path d="M3858 3739 c-54 -27 -71 -50 -48 -64 5 -3 39 8 75 24 50 23 66 35 63
48 -5 27 -27 25 -90 -8z"/>
<path d="M4360 3731 c-9 -17 -6 -23 17 -37 16 -10 46 -28 67 -42 38 -24 40
-24 53 -6 16 21 7 30 -76 77 -49 27 -50 27 -61 8z"/>
<path d="M3927 3632 c-43 -51 -46 -57 -32 -71 15 -15 21 -11 65 39 53 59 59
74 34 84 -20 7 -11 14 -67 -52z"/>
<path d="M4261 3641 c-11 -7 -7 -21 20 -72 36 -66 45 -74 68 -60 11 7 7 21
-21 72 -36 66 -45 74 -67 60z"/>
<path d="M4057 3623 c-3 -5 -14 -35 -26 -67 -21 -60 -18 -75 14 -76 13 0 57
129 49 142 -6 10 -31 11 -37 1z"/>
<path d="M4156 3612 c-3 -5 -2 -41 1 -80 6 -68 7 -72 30 -72 24 0 24 1 17 73
-3 39 -9 75 -11 80 -6 10 -31 9 -37 -1z"/>
</g>
</svg>
